<?xml version="1.0" encoding="utf-8"?>
<!-- Generator: Adobe Illustrator 25.4.1, SVG Export Plug-In . SVG Version: 6.00 Build 0)  -->
<svg version="1.1" id="Ebene_1" xmlns="http://www.w3.org/2000/svg" xmlns:xlink="http://www.w3.org/1999/xlink" x="0px" y="0px"
	 viewBox="0 0 500 149" style="enable-background:new 0 0 500 149;" xml:space="preserve">
<g>
	<g>
		<path d="M177.9,29.1c2.2-1.9,4.6-3.3,7.2-4.3c2.6-0.9,5.5-1.4,8.5-1.4c2.2,0,4.1,0.4,5.9,1.1c1.7,0.7,3.2,1.7,4.4,2.9
			c1.2,1.3,2.1,2.8,2.8,4.5c0.6,1.7,1,3.6,1,5.7V60h-4.9c-1,0-1.8-0.1-2.3-0.4s-1-0.9-1.3-1.7l-0.8-2c-0.9,0.8-1.8,1.4-2.6,2
			c-0.8,0.6-1.7,1.1-2.6,1.5c-0.9,0.4-1.8,0.7-2.8,0.9s-2.1,0.3-3.3,0.3c-1.6,0-3.1-0.2-4.5-0.6c-1.3-0.4-2.5-1.1-3.4-1.9
			s-1.7-1.9-2.2-3.1c-0.5-1.2-0.8-2.7-0.8-4.3c0-1.3,0.3-2.6,1-3.9c0.6-1.3,1.8-2.5,3.4-3.6c1.6-1.1,3.7-2,6.4-2.8
			c2.7-0.7,6.1-1.2,10.2-1.2v-1.5c0-2.1-0.4-3.6-1.3-4.5c-0.9-0.9-2.1-1.4-3.7-1.4c-1.3,0-2.3,0.1-3.1,0.4c-0.8,0.3-1.5,0.6-2.2,0.9
			c-0.6,0.3-1.3,0.7-1.9,0.9c-0.6,0.3-1.3,0.4-2.1,0.4c-0.7,0-1.4-0.2-1.9-0.6c-0.5-0.4-0.9-0.8-1.2-1.3L177.9,29.1z M197.2,45.4
			c-2.1,0.1-3.9,0.3-5.3,0.6c-1.4,0.3-2.5,0.6-3.3,1c-0.8,0.4-1.4,0.9-1.7,1.4c-0.3,0.5-0.5,1.1-0.5,1.7c0,1.2,0.3,2.1,1,2.6
			c0.7,0.5,1.6,0.7,2.9,0.7c1.4,0,2.6-0.2,3.6-0.7c1-0.5,2.1-1.3,3.1-2.4V45.4z"/>
		<path d="M225.2,8.2v29h1.6c0.7,0,1.2-0.1,1.5-0.3c0.3-0.2,0.7-0.5,1-1l6.8-10.1c0.4-0.6,0.9-1,1.4-1.3c0.5-0.3,1.2-0.4,2-0.4h9.8
			l-9.3,12.8c-0.9,1.2-1.9,2.1-3.1,2.8c0.5,0.4,1,0.8,1.5,1.4c0.4,0.5,0.9,1.1,1.2,1.7L249.8,60h-9.7c-0.8,0-1.5-0.1-2.1-0.4
			c-0.6-0.3-1.1-0.7-1.5-1.4l-6.8-12.7c-0.3-0.6-0.7-1-1-1.1c-0.3-0.2-0.9-0.3-1.6-0.3h-2.1V60h-10.7V8.2H225.2z"/>
		<path d="M265.2,14.3c0,0.9-0.2,1.7-0.5,2.4c-0.3,0.7-0.8,1.4-1.4,2c-0.6,0.6-1.3,1-2.1,1.3c-0.8,0.3-1.6,0.5-2.5,0.5
			c-0.9,0-1.7-0.2-2.5-0.5c-0.8-0.3-1.4-0.8-2-1.3c-0.6-0.6-1-1.2-1.4-2c-0.3-0.7-0.5-1.6-0.5-2.4c0-0.9,0.2-1.7,0.5-2.5
			c0.3-0.8,0.8-1.4,1.4-2c0.6-0.6,1.3-1,2-1.3c0.8-0.3,1.6-0.5,2.5-0.5c0.9,0,1.7,0.2,2.5,0.5c0.8,0.3,1.5,0.8,2.1,1.3
			c0.6,0.6,1.1,1.2,1.4,2C265,12.6,265.2,13.4,265.2,14.3z M264.1,24.1V60h-10.7V24.1H264.1z"/>
		<path d="M282.3,8.2V60h-10.7V8.2H282.3z"/>
		<path d="M300.3,8.2V60h-10.7V8.2H300.3z"/>
		<path d="M319.7,14.3c0,0.9-0.2,1.7-0.5,2.4c-0.3,0.7-0.8,1.4-1.4,2c-0.6,0.6-1.3,1-2.1,1.3c-0.8,0.3-1.6,0.5-2.5,0.5
			c-0.9,0-1.7-0.2-2.5-0.5c-0.8-0.3-1.4-0.8-2-1.3c-0.6-0.6-1-1.2-1.4-2c-0.3-0.7-0.5-1.6-0.5-2.4c0-0.9,0.2-1.7,0.5-2.5
			c0.3-0.8,0.8-1.4,1.4-2c0.6-0.6,1.3-1,2-1.3c0.8-0.3,1.6-0.5,2.5-0.5c0.9,0,1.7,0.2,2.5,0.5c0.8,0.3,1.5,0.8,2.1,1.3
			c0.6,0.6,1.1,1.2,1.4,2C319.5,12.6,319.7,13.4,319.7,14.3z M318.5,24.1V60h-10.7V24.1H318.5z"/>
		<path d="M167.7,127c0.3,3,1.3,5.2,2.7,6.5c1.5,1.3,3.4,2,5.7,2c1.2,0,2.3-0.1,3.2-0.4s1.7-0.6,2.4-1c0.7-0.4,1.3-0.7,1.9-1
			c0.6-0.3,1.2-0.5,1.9-0.5c0.9,0,1.5,0.3,1.9,0.9l3.1,3.8c-1.1,1.3-2.3,2.3-3.6,3.1s-2.6,1.4-3.9,1.9c-1.3,0.4-2.7,0.8-4,0.9
			c-1.3,0.2-2.6,0.3-3.9,0.3c-2.5,0-4.9-0.4-7.1-1.2c-2.2-0.8-4.1-2-5.8-3.7c-1.6-1.6-3-3.6-3.9-6c-1-2.4-1.4-5.2-1.4-8.4
			c0-2.4,0.4-4.7,1.2-6.8s2-4,3.5-5.6c1.5-1.6,3.4-2.9,5.6-3.8c2.2-0.9,4.6-1.4,7.4-1.4c2.4,0,4.5,0.4,6.5,1.1
			c2,0.7,3.7,1.8,5.1,3.2c1.4,1.4,2.5,3.1,3.3,5.2c0.8,2,1.2,4.4,1.2,6.9c0,0.8,0,1.5-0.1,2c-0.1,0.5-0.2,0.9-0.4,1.2
			c-0.2,0.3-0.4,0.5-0.7,0.6s-0.7,0.2-1.2,0.2H167.7z M181.2,120.8c0-0.9-0.1-1.7-0.3-2.5s-0.6-1.5-1.1-2.2c-0.5-0.6-1.1-1.1-2-1.5
			c-0.8-0.4-1.8-0.6-2.9-0.6c-2,0-3.6,0.6-4.8,1.7s-1.9,2.8-2.3,5H181.2z"/>
		<path d="M228.7,91.2V143H222c-1.3,0-2.2-0.6-2.6-1.8l-0.8-2.7c-0.7,0.8-1.5,1.5-2.2,2.1c-0.8,0.6-1.6,1.2-2.5,1.6
			c-0.9,0.5-1.9,0.8-2.9,1c-1,0.2-2.2,0.4-3.4,0.4c-1.9,0-3.6-0.4-5.2-1.2c-1.6-0.8-3-2-4.1-3.6s-2.1-3.5-2.7-5.8s-1-4.9-1-7.8
			c0-2.7,0.4-5.2,1.1-7.5c0.7-2.3,1.8-4.3,3.1-6c1.3-1.7,3-3,4.9-3.9c1.9-0.9,4-1.4,6.3-1.4c1.9,0,3.4,0.3,4.7,0.8
			c1.3,0.5,2.4,1.2,3.5,2.1V91.2H228.7z M218,116.8c-0.8-0.9-1.7-1.5-2.6-1.9s-1.9-0.5-3-0.5c-1,0-1.9,0.2-2.7,0.6
			c-0.8,0.4-1.6,1-2.2,1.9c-0.6,0.9-1.1,2-1.4,3.4c-0.3,1.4-0.5,3.1-0.5,5c0,1.9,0.1,3.5,0.4,4.8c0.3,1.3,0.7,2.3,1.2,3.1
			c0.5,0.8,1.1,1.4,1.8,1.7s1.5,0.5,2.3,0.5c0.8,0,1.5-0.1,2.1-0.2c0.6-0.1,1.2-0.4,1.7-0.6c0.5-0.3,1-0.6,1.5-1.1
			c0.5-0.4,0.9-0.9,1.4-1.5V116.8z"/>
		<path d="M248,97.3c0,0.9-0.2,1.7-0.5,2.4c-0.3,0.8-0.8,1.4-1.4,2c-0.6,0.6-1.3,1-2.1,1.3c-0.8,0.3-1.6,0.5-2.5,0.5
			c-0.9,0-1.7-0.2-2.5-0.5c-0.8-0.3-1.4-0.8-2-1.3c-0.6-0.6-1.1-1.2-1.4-2c-0.3-0.7-0.5-1.6-0.5-2.4c0-0.9,0.2-1.7,0.5-2.5
			c0.3-0.8,0.8-1.4,1.4-2c0.6-0.6,1.3-1,2-1.3c0.8-0.3,1.6-0.5,2.5-0.5c0.9,0,1.7,0.2,2.5,0.5c0.8,0.3,1.5,0.8,2.1,1.3
			c0.6,0.6,1.1,1.2,1.4,2S248,96.4,248,97.3z M246.9,107.1V143h-10.7v-35.9H246.9z"/>
		<path d="M267.3,143.6c-1.7,0-3.2-0.2-4.5-0.7c-1.3-0.5-2.4-1.2-3.3-2.1s-1.6-2-2-3.3c-0.5-1.3-0.7-2.7-0.7-4.3v-18.5h-3
			c-0.6,0-1-0.2-1.4-0.5c-0.4-0.4-0.6-0.9-0.6-1.6v-4.2l5.7-1.1l2.1-8.8c0.3-1.1,1.1-1.7,2.4-1.7h5.6v10.5h8.9v7.3h-8.9v17.8
			c0,0.8,0.2,1.5,0.6,2.1s1,0.8,1.7,0.8c0.4,0,0.7,0,1-0.1c0.3-0.1,0.5-0.2,0.7-0.3c0.2-0.1,0.4-0.2,0.6-0.3
			c0.2-0.1,0.4-0.1,0.6-0.1c0.3,0,0.6,0.1,0.8,0.2c0.2,0.2,0.4,0.4,0.6,0.7l3.3,5.1c-1.4,1-2.9,1.8-4.7,2.3
			C270.9,143.3,269.1,143.6,267.3,143.6z"/>
		<path d="M297.2,106.6c2.7,0,5.2,0.4,7.4,1.3s4.2,2.1,5.8,3.7c1.6,1.6,2.8,3.5,3.7,5.8c0.9,2.3,1.3,4.8,1.3,7.7
			c0,2.9-0.4,5.4-1.3,7.7s-2.1,4.2-3.7,5.8c-1.6,1.6-3.5,2.8-5.8,3.7c-2.2,0.9-4.7,1.3-7.4,1.3c-2.7,0-5.2-0.4-7.5-1.3
			c-2.2-0.9-4.2-2.1-5.8-3.7c-1.6-1.6-2.9-3.6-3.8-5.8c-0.9-2.3-1.3-4.9-1.3-7.7c0-2.8,0.4-5.4,1.3-7.7c0.9-2.3,2.1-4.2,3.8-5.8
			s3.6-2.8,5.8-3.7S294.4,106.6,297.2,106.6z M297.2,135.6c2.5,0,4.3-0.9,5.5-2.6c1.2-1.7,1.7-4.4,1.7-7.9c0-3.6-0.6-6.2-1.7-7.9
			c-1.2-1.7-3-2.6-5.5-2.6c-2.5,0-4.4,0.9-5.6,2.6c-1.2,1.7-1.8,4.4-1.8,7.9c0,3.6,0.6,6.2,1.8,7.9
			C292.8,134.7,294.6,135.6,297.2,135.6z"/>
		<path d="M330.9,112.7c1.1-1.9,2.4-3.5,3.8-4.6c1.4-1.1,3.1-1.7,5-1.7c1.6,0,2.9,0.4,3.9,1.1l-0.7,7.9c-0.1,0.5-0.3,0.9-0.6,1
			c-0.3,0.2-0.6,0.3-1.1,0.3c-0.2,0-0.4,0-0.7,0c-0.3,0-0.6-0.1-0.9-0.1c-0.3,0-0.7-0.1-1-0.1s-0.6-0.1-0.9-0.1
			c-1.6,0-2.8,0.4-3.8,1.2c-0.9,0.8-1.7,2-2.4,3.5V143h-10.7v-35.9h6.4c0.5,0,1,0,1.3,0.1c0.4,0.1,0.7,0.2,0.9,0.4
			c0.2,0.2,0.4,0.5,0.6,0.8c0.1,0.3,0.2,0.7,0.3,1.2L330.9,112.7z"/>
	</g>
	<g>
		<path d="M71.7,68.8c-4.8,2.3-10.2,4.2-16.3,5.6c6.1,1.4,11.6,3.3,16.3,5.6l40,21.7c2.5,1.2,4.3,2.7,5.4,4.6c1.1,1.8,1.6,3.8,1.6,6
			v30.3L4.7,83V66L118.8,6.2v30.3c0,2.2-0.5,4.2-1.6,6c-1.1,1.8-2.9,3.4-5.4,4.7L71.7,68.8z"/>
	</g>
	<g>
		<path d="M388.9,47.2c-2.5-1.3-4.3-2.9-5.4-4.7c-1.1-1.8-1.6-3.8-1.6-6V6.2L496,66v17l-114.1,59.6v-30.3c0-2.2,0.5-4.2,1.6-6
			c1.1-1.8,2.9-3.4,5.4-4.6l40-21.7c4.8-2.3,10.2-4.2,16.3-5.6c-6.1-1.4-11.6-3.3-16.3-5.6L388.9,47.2z"/>
	</g>
</g>
</svg>
